# xmcd
#
# Track frame offsets:
#	150
#	17902
#	34403
#	51756
#	69789
#	86293
#	101895
#	120574
#	138275
#	157377
#	175142
#	189433
#	210625
#	225606
#	247697
#	264077
#	281340
#	302573
#	318613
#
# Disc length: 4498 seconds
#
# Revision: 0
# Processed by: cddbd v1.5.2PL0 Copyright (c) Steve Scherf et al.
# Submitted via: EasyCDDAExtractor 12.0.4.1
#
DISCID=fc119013
DTITLE=ERG Music - Nu Urban Traxx Volume 150 US
DYEAR=2010
DGENRE=
TTITLE0=Over - Drake 76BPM
TTITLE1=My Chick Bad - Ludacris ft. Nicki Minaj 87BPM
TTITLE2=Reverse Cowgirl - T-Pain 65BPM
TTITLE3=Bring It Back - 8Ball and MJG ft. Young Dro 79BPM
TTITLE4=Imma Love You Right - John Brown 89BPM
TTITLE5=Slow Down - David Banner and 9th Wonder 87BPM
TTITLE6=Love King - The-Dream 85BPM
TTITLE7=Beautiful - Vivian Green 82BPM
TTITLE8=Sponsor - Teairra Mari ft. Gucci and Soulja Boy 80BPM
TTITLE9=Lil Freak - Usher ft. Nicki Minaj 70BPM
TTITLE10=Bring It Back DJ - Maino 93BPM
TTITLE11=Worth It - Whitney Houston 64BPM
TTITLE12=Ay Yo- Melanie Fiona 88BPM
TTITLE13=Window Seat - Erykah Badu 83BPM
TTITLE14=Baby - Justin Bieber ft. Ludacris 130BPM
TTITLE15=Higher Than This - Ledisi 70BPM
TTITLE16=O Lets Do It (Remix Clean) - Waka Flocka Flames 65BPM
TTITLE17=Just A Little Bit - Brian McKnight 83BPM
TTITLE18=On Everything - K'Jon 102BPM
EXTD=
EXTT0=
EXTT1=
EXTT2=
EXTT3=
EXTT4=
EXTT5=
EXTT6=
EXTT7=
EXTT8=
EXTT9=
EXTT10=
EXTT11=
EXTT12=
EXTT13=
EXTT14=
EXTT15=
EXTT16=
EXTT17=
EXTT18=
PLAYORDER=
